<?xml version="1.0" encoding="UTF-8"?>
<!DOCTYPE svg PUBLIC "-//W3C//DTD SVG 1.1//EN" "http://www.w3.org/Graphics/SVG/1.1/DTD/svg11.dtd">
<svg version="1.2" width="4.76mm" height="4.76mm" viewBox="0 0 476 476" preserveAspectRatio="xMidYMid" fill-rule="evenodd" stroke-width="28.222" stroke-linejoin="round" xmlns="http://www.w3.org/2000/svg" xmlns:ooo="http://xml.openoffice.org/svg/export" xmlns:xlink="http://www.w3.org/1999/xlink" xmlns:presentation="http://sun.com/xmlns/staroffice/presentation" xmlns:smil="http://www.w3.org/2001/SMIL20/" xmlns:anim="urn:oasis:names:tc:opendocument:xmlns:animation:1.0" xml:space="preserve">
 <defs class="ClipPathGroup">
  <clipPath id="presentation_clip_path" clipPathUnits="userSpaceOnUse">
   <rect x="0" y="0" width="476" height="476"/>
  </clipPath>
  <clipPath id="presentation_clip_path_shrink" clipPathUnits="userSpaceOnUse">
   <rect x="0" y="0" width="476" height="476"/>
  </clipPath>
 </defs>
 <defs class="TextShapeIndex">
  <g ooo:slide="id1" ooo:id-list="id3"/>
 </defs>
 <defs class="EmbeddedBulletChars">
  <g id="bullet-char-template-57356" transform="scale(0.00048828125,-0.00048828125)">
   <path d="M 580,1141 L 1163,571 580,0 -4,571 580,1141 Z"/>
  </g>
  <g id="bullet-char-template-57354" transform="scale(0.00048828125,-0.00048828125)">
   <path d="M 8,1128 L 1137,1128 1137,0 8,0 8,1128 Z"/>
  </g>
  <g id="bullet-char-template-10146" transform="scale(0.00048828125,-0.00048828125)">
   <path d="M 174,0 L 602,739 174,1481 1456,739 174,0 Z M 1358,739 L 309,1346 659,739 1358,739 Z"/>
  </g>
  <g id="bullet-char-template-10132" transform="scale(0.00048828125,-0.00048828125)">
   <path d="M 2015,739 L 1276,0 717,0 1260,543 174,543 174,936 1260,936 717,1481 1274,1481 2015,739 Z"/>
  </g>
  <g id="bullet-char-template-10007" transform="scale(0.00048828125,-0.00048828125)">
   <path d="M 0,-2 C -7,14 -16,27 -25,37 L 356,567 C 262,823 215,952 215,954 215,979 228,992 255,992 264,992 276,990 289,987 310,991 331,999 354,1012 L 381,999 492,748 772,1049 836,1024 860,1049 C 881,1039 901,1025 922,1006 886,937 835,863 770,784 769,783 710,716 594,584 L 774,223 C 774,196 753,168 711,139 L 727,119 C 717,90 699,76 672,76 641,76 570,178 457,381 L 164,-76 C 142,-110 111,-127 72,-127 30,-127 9,-110 8,-76 1,-67 -2,-52 -2,-32 -2,-23 -1,-13 0,-2 Z"/>
  </g>
  <g id="bullet-char-template-10004" transform="scale(0.00048828125,-0.00048828125)">
   <path d="M 285,-33 C 182,-33 111,30 74,156 52,228 41,333 41,471 41,549 55,616 82,672 116,743 169,778 240,778 293,778 328,747 346,684 L 369,508 C 377,444 397,411 428,410 L 1163,1116 C 1174,1127 1196,1133 1229,1133 1271,1133 1292,1118 1292,1087 L 1292,965 C 1292,929 1282,901 1262,881 L 442,47 C 390,-6 338,-33 285,-33 Z"/>
  </g>
  <g id="bullet-char-template-9679" transform="scale(0.00048828125,-0.00048828125)">
   <path d="M 813,0 C 632,0 489,54 383,161 276,268 223,411 223,592 223,773 276,916 383,1023 489,1130 632,1184 813,1184 992,1184 1136,1130 1245,1023 1353,916 1407,772 1407,592 1407,412 1353,268 1245,161 1136,54 992,0 813,0 Z"/>
  </g>
  <g id="bullet-char-template-8226" transform="scale(0.00048828125,-0.00048828125)">
   <path d="M 346,457 C 273,457 209,483 155,535 101,586 74,649 74,723 74,796 101,859 155,911 209,963 273,989 346,989 419,989 480,963 531,910 582,859 608,796 608,723 608,648 583,586 532,535 482,483 420,457 346,457 Z"/>
  </g>
  <g id="bullet-char-template-8211" transform="scale(0.00048828125,-0.00048828125)">
   <path d="M -4,459 L 1135,459 1135,606 -4,606 -4,459 Z"/>
  </g>
  <g id="bullet-char-template-61548" transform="scale(0.00048828125,-0.00048828125)">
   <path d="M 173,740 C 173,903 231,1043 346,1159 462,1274 601,1332 765,1332 928,1332 1067,1274 1183,1159 1299,1043 1357,903 1357,740 1357,577 1299,437 1183,322 1067,206 928,148 765,148 601,148 462,206 346,322 231,437 173,577 173,740 Z"/>
  </g>
 </defs>
 <defs class="TextEmbeddedBitmaps"/>
 <g>
  <g id="id2" class="Master_Slide">
   <g id="bg-id2" class="Background"/>
   <g id="bo-id2" class="BackgroundObjects"/>
  </g>
 </g>
 <g class="SlideGroup">
  <g>
   <g id="container-id1">
    <g id="id1" class="Slide" clip-path="url(#presentation_clip_path)">
     <g class="Page">
      <g class="Graphic">
       <g id="id3">
        <rect class="BoundingBox" stroke="none" fill="none" x="0" y="0" width="476" height="476"/>
        <defs>
         <clipPath id="clip_path_1" clipPathUnits="userSpaceOnUse">
          <path d="M 0,0 L 475,0 475,475 0,475 0,0 Z"/>
         </clipPath>
        </defs>
        <g clip-path="url(#clip_path_1)">
         <path fill="rgb(0,0,0)" stroke="none" d="M 261,171 C 264,171 266,170 269,169 271,167 273,165 275,163 276,160 277,158 277,154 277,151 276,149 275,146 273,143 271,142 269,140 266,139 263,138 260,138 260,138 260,138 260,138 L 218,138 C 215,138 213,139 211,140 208,142 206,143 204,146 203,149 202,151 202,154 202,158 203,160 204,163 206,165 208,167 211,169 213,170 215,171 218,171 L 117,171 C 107,172 99,174 90,179 81,185 74,192 68,202 64,209 62,215 60,223 L 417,223 C 416,215 414,209 410,202 404,192 397,185 387,179 379,174 371,172 361,171 L 261,171 Z"/>
         <path fill="rgb(0,0,0)" stroke="none" d="M 418,252 L 418,247 0,247 0,271 60,271 60,418 C 60,429 62,437 67,447 72,456 79,462 88,467 97,473 106,475 117,475 L 361,475 C 371,475 380,473 389,467 399,462 405,456 410,447 416,437 418,429 418,418 L 418,276 475,276 475,252 418,252 Z"/>
         <path fill="rgb(0,0,0)" stroke="none" d="M 157,63 L 161,68 C 164,71 167,74 169,77 170,78 171,79 172,80 172,80 172,81 172,81 173,82 173,82 173,83 173,84 173,85 172,87 172,87 172,87 171,88 170,90 168,91 166,93 168,93 170,94 172,94 173,94 174,94 174,94 176,93 178,93 180,92 181,91 182,90 183,89 184,88 185,87 185,86 187,84 187,82 187,79 188,78 188,78 188,77 188,74 187,72 186,69 185,65 184,61 182,58 181,56 180,55 179,54 177,52 176,50 174,48 173,46 172,45 171,43 169,41 168,39 167,37 164,33 163,30 162,25 162,23 162,22 162,20 162,13 163,6 166,0 L 166,0 C 163,1 161,2 158,3 153,6 150,10 147,14 145,17 144,20 144,23 143,26 143,28 143,31 143,35 143,38 144,42 145,46 147,49 149,53 150,55 151,56 152,57 L 152,57 C 153,59 155,61 157,63 Z"/>
         <path fill="rgb(0,0,0)" stroke="none" d="M 213,57 C 215,59 217,61 218,63 L 223,68 C 226,71 229,74 231,77 232,78 233,79 234,80 234,80 234,81 234,81 234,82 235,82 235,83 235,83 235,83 235,83 235,84 235,86 234,87 234,87 233,87 233,88 231,90 230,91 228,93 230,93 232,94 234,94 235,94 235,94 236,94 238,93 240,93 242,92 243,91 244,90 245,89 246,88 246,87 247,86 248,84 249,82 249,79 249,78 249,78 249,77 249,74 249,72 248,69 247,65 245,61 243,58 242,56 242,55 241,54 239,52 237,49 236,48 235,46 234,45 233,43 231,41 230,40 229,37 226,33 225,29 224,25 224,23 223,21 223,19 223,12 225,6 228,0 L 228,0 C 225,1 222,2 220,3 215,6 211,10 208,14 207,17 206,20 205,23 204,26 204,28 204,31 204,35 205,38 206,42 207,46 208,49 210,53 211,55 212,56 213,57 L 213,57 Z"/>
         <path fill="rgb(0,0,0)" stroke="none" d="M 269,57 C 271,59 273,61 275,63 L 279,68 C 282,71 285,74 287,77 288,78 289,79 290,80 290,80 290,81 290,81 290,82 291,82 291,83 291,83 291,83 291,83 291,84 291,85 290,87 290,87 289,87 289,88 288,90 286,91 284,93 286,93 288,94 290,94 291,94 291,94 292,94 294,93 296,93 298,92 299,91 300,90 301,89 302,88 302,88 303,86 304,84 305,82 305,79 305,78 305,77 305,77 305,74 305,72 304,69 303,65 301,61 299,58 298,56 298,55 297,54 295,52 294,50 292,48 291,46 290,45 289,43 287,41 286,40 285,38 282,33 281,30 280,25 280,23 280,21 280,19 280,12 281,6 284,0 L 284,0 C 281,1 278,2 276,3 271,6 267,10 265,14 263,17 262,20 261,23 261,26 260,28 260,31 260,35 261,38 262,42 263,46 264,49 266,53 267,55 268,56 269,57 L 269,57 Z"/>
        </g>
       </g>
      </g>
     </g>
    </g>
   </g>
  </g>
 </g>
</svg>