<?xml version="1.0" encoding="UTF-8"?>
<!DOCTYPE svg PUBLIC "-//W3C//DTD SVG 1.1//EN" "http://www.w3.org/Graphics/SVG/1.1/DTD/svg11.dtd">
<svg version="1.2" width="4.76mm" height="4.76mm" viewBox="0 0 476 476" preserveAspectRatio="xMidYMid" fill-rule="evenodd" stroke-width="28.222" stroke-linejoin="round" xmlns="http://www.w3.org/2000/svg" xmlns:ooo="http://xml.openoffice.org/svg/export" xmlns:xlink="http://www.w3.org/1999/xlink" xmlns:presentation="http://sun.com/xmlns/staroffice/presentation" xmlns:smil="http://www.w3.org/2001/SMIL20/" xmlns:anim="urn:oasis:names:tc:opendocument:xmlns:animation:1.0" xml:space="preserve">
 <defs class="ClipPathGroup">
  <clipPath id="presentation_clip_path" clipPathUnits="userSpaceOnUse">
   <rect x="0" y="0" width="476" height="476"/>
  </clipPath>
  <clipPath id="presentation_clip_path_shrink" clipPathUnits="userSpaceOnUse">
   <rect x="0" y="0" width="476" height="476"/>
  </clipPath>
 </defs>
 <defs class="TextShapeIndex">
  <g ooo:slide="id1" ooo:id-list="id3"/>
 </defs>
 <defs class="EmbeddedBulletChars">
  <g id="bullet-char-template-57356" transform="scale(0.00048828125,-0.00048828125)">
   <path d="M 580,1141 L 1163,571 580,0 -4,571 580,1141 Z"/>
  </g>
  <g id="bullet-char-template-57354" transform="scale(0.00048828125,-0.00048828125)">
   <path d="M 8,1128 L 1137,1128 1137,0 8,0 8,1128 Z"/>
  </g>
  <g id="bullet-char-template-10146" transform="scale(0.00048828125,-0.00048828125)">
   <path d="M 174,0 L 602,739 174,1481 1456,739 174,0 Z M 1358,739 L 309,1346 659,739 1358,739 Z"/>
  </g>
  <g id="bullet-char-template-10132" transform="scale(0.00048828125,-0.00048828125)">
   <path d="M 2015,739 L 1276,0 717,0 1260,543 174,543 174,936 1260,936 717,1481 1274,1481 2015,739 Z"/>
  </g>
  <g id="bullet-char-template-10007" transform="scale(0.00048828125,-0.00048828125)">
   <path d="M 0,-2 C -7,14 -16,27 -25,37 L 356,567 C 262,823 215,952 215,954 215,979 228,992 255,992 264,992 276,990 289,987 310,991 331,999 354,1012 L 381,999 492,748 772,1049 836,1024 860,1049 C 881,1039 901,1025 922,1006 886,937 835,863 770,784 769,783 710,716 594,584 L 774,223 C 774,196 753,168 711,139 L 727,119 C 717,90 699,76 672,76 641,76 570,178 457,381 L 164,-76 C 142,-110 111,-127 72,-127 30,-127 9,-110 8,-76 1,-67 -2,-52 -2,-32 -2,-23 -1,-13 0,-2 Z"/>
  </g>
  <g id="bullet-char-template-10004" transform="scale(0.00048828125,-0.00048828125)">
   <path d="M 285,-33 C 182,-33 111,30 74,156 52,228 41,333 41,471 41,549 55,616 82,672 116,743 169,778 240,778 293,778 328,747 346,684 L 369,508 C 377,444 397,411 428,410 L 1163,1116 C 1174,1127 1196,1133 1229,1133 1271,1133 1292,1118 1292,1087 L 1292,965 C 1292,929 1282,901 1262,881 L 442,47 C 390,-6 338,-33 285,-33 Z"/>
  </g>
  <g id="bullet-char-template-9679" transform="scale(0.00048828125,-0.00048828125)">
   <path d="M 813,0 C 632,0 489,54 383,161 276,268 223,411 223,592 223,773 276,916 383,1023 489,1130 632,1184 813,1184 992,1184 1136,1130 1245,1023 1353,916 1407,772 1407,592 1407,412 1353,268 1245,161 1136,54 992,0 813,0 Z"/>
  </g>
  <g id="bullet-char-template-8226" transform="scale(0.00048828125,-0.00048828125)">
   <path d="M 346,457 C 273,457 209,483 155,535 101,586 74,649 74,723 74,796 101,859 155,911 209,963 273,989 346,989 419,989 480,963 531,910 582,859 608,796 608,723 608,648 583,586 532,535 482,483 420,457 346,457 Z"/>
  </g>
  <g id="bullet-char-template-8211" transform="scale(0.00048828125,-0.00048828125)">
   <path d="M -4,459 L 1135,459 1135,606 -4,606 -4,459 Z"/>
  </g>
  <g id="bullet-char-template-61548" transform="scale(0.00048828125,-0.00048828125)">
   <path d="M 173,740 C 173,903 231,1043 346,1159 462,1274 601,1332 765,1332 928,1332 1067,1274 1183,1159 1299,1043 1357,903 1357,740 1357,577 1299,437 1183,322 1067,206 928,148 765,148 601,148 462,206 346,322 231,437 173,577 173,740 Z"/>
  </g>
 </defs>
 <defs class="TextEmbeddedBitmaps"/>
 <g>
  <g id="id2" class="Master_Slide">
   <g id="bg-id2" class="Background"/>
   <g id="bo-id2" class="BackgroundObjects"/>
  </g>
 </g>
 <g class="SlideGroup">
  <g>
   <g id="container-id1">
    <g id="id1" class="Slide" clip-path="url(#presentation_clip_path)">
     <g class="Page">
      <g class="Graphic">
       <g id="id3">
        <rect class="BoundingBox" stroke="none" fill="none" x="0" y="0" width="476" height="476"/>
        <defs>
         <clipPath id="clip_path_1" clipPathUnits="userSpaceOnUse">
          <path d="M 0,0 L 475,0 475,475 0,475 0,0 Z"/>
         </clipPath>
        </defs>
        <g clip-path="url(#clip_path_1)">
         <path fill="rgb(0,0,0)" stroke="none" d="M 114,394 L 114,323 C 114,321 113,320 113,318 112,317 111,316 109,315 108,314 106,314 105,314 L 9,314 C 3,331 0,346 0,364 0,378 2,390 5,403 L 105,403 C 107,403 108,403 109,402 111,401 112,400 113,399 113,397 114,396 114,394 Z"/>
         <path fill="rgb(0,0,0)" stroke="none" d="M 202,433 L 211,422 C 213,419 215,417 217,414 226,397 230,381 230,363 230,344 226,328 217,312 214,308 212,305 209,301 L 203,294 203,242 C 203,242 203,241 202,241 200,237 199,234 198,230 198,230 199,229 199,229 204,227 207,224 209,219 212,215 213,211 213,206 213,201 212,197 209,192 207,188 204,185 199,183 195,180 191,179 186,179 186,179 186,179 186,179 L 78,179 C 78,179 78,179 78,179 73,179 69,180 65,183 61,185 58,188 55,193 53,197 51,201 51,206 51,211 53,215 55,219 58,224 61,227 65,229 66,230 67,230 68,231 67,235 65,238 63,241 58,250 53,256 45,262 34,272 25,281 18,294 18,295 17,295 17,296 L 105,296 C 110,296 114,297 118,299 122,302 126,305 128,309 131,314 132,318 132,323 L 132,394 C 132,399 131,403 128,408 126,412 122,415 118,418 114,420 110,421 105,421 L 12,421 C 14,425 15,428 17,432 25,446 35,456 49,464 62,471 75,475 90,475 L 176,475 C 190,475 202,472 214,465 213,464 212,463 212,462 209,457 207,452 205,446 L 202,433 Z M 97,215 L 97,215 78,215 C 77,215 76,215 74,214 73,213 72,212 71,211 70,209 70,208 70,206 70,204 70,203 71,202 72,200 73,199 74,198 76,198 77,197 78,197 L 186,197 C 186,197 186,197 186,197 188,197 189,197 191,198 192,199 193,200 194,202 195,203 195,204 195,206 195,208 195,209 194,211 193,212 192,213 191,214 189,215 188,215 186,215 186,215 186,215 186,215 L 97,215 97,215 97,215 Z"/>
         <path fill="rgb(0,0,0)" stroke="none" d="M 347,188 L 445,188 445,385 347,385 347,188 Z"/>
         <path fill="rgb(0,0,0)" stroke="none" d="M 395,77 C 395,77 394,76 393,75 392,73 392,72 392,70 392,69 392,69 392,69 392,67 393,65 394,63 L 331,63 C 330,63 329,63 327,62 326,61 325,60 324,59 323,57 323,56 323,54 323,53 323,51 324,50 325,48 326,47 327,46 329,46 330,45 331,45 L 407,45 C 409,42 409,39 409,36 L 409,27 C 409,22 408,18 406,13 403,9 400,6 396,4 392,1 387,0 382,0 L 284,0 C 279,0 275,1 271,4 266,6 263,9 261,13 258,18 257,22 257,27 L 257,36 C 257,39 258,42 259,45 L 295,45 C 297,45 298,46 299,46 301,47 302,48 302,50 303,51 304,52 304,54 304,56 303,57 302,59 302,60 301,61 299,62 298,63 297,63 295,63 L 273,63 C 273,63 273,63 273,63 274,65 275,66 275,68 275,69 275,69 275,70 275,71 275,73 274,74 274,75 273,75 273,76 273,76 272,77 271,77 269,79 267,81 265,83 252,91 242,102 234,115 226,130 222,144 221,161 L 221,287 223,290 C 227,294 229,298 232,303 243,322 248,341 248,363 248,385 243,403 232,422 230,426 228,430 225,434 L 222,437 223,442 C 224,446 225,449 227,453 231,460 236,465 243,469 250,473 256,474 264,474 L 402,474 C 410,474 417,473 424,469 431,465 436,460 439,453 443,446 445,440 445,432 L 445,403 329,403 329,171 445,171 445,161 C 445,144 441,130 432,115 424,102 415,92 402,83 L 395,77 Z"/>
        </g>
       </g>
      </g>
     </g>
    </g>
   </g>
  </g>
 </g>
</svg>