<?xml version="1.0" encoding="UTF-8"?>
<!DOCTYPE svg PUBLIC "-//W3C//DTD SVG 1.1//EN" "http://www.w3.org/Graphics/SVG/1.1/DTD/svg11.dtd">
<svg version="1.2" width="169.33mm" height="127mm" viewBox="0 0 16933 12700" preserveAspectRatio="xMidYMid" fill-rule="evenodd" stroke-width="28.222" stroke-linejoin="round" xmlns="http://www.w3.org/2000/svg" xmlns:ooo="http://xml.openoffice.org/svg/export" xmlns:xlink="http://www.w3.org/1999/xlink" xmlns:presentation="http://sun.com/xmlns/staroffice/presentation" xmlns:smil="http://www.w3.org/2001/SMIL20/" xmlns:anim="urn:oasis:names:tc:opendocument:xmlns:animation:1.0" xml:space="preserve">
 <defs class="ClipPathGroup">
  <clipPath id="presentation_clip_path" clipPathUnits="userSpaceOnUse">
   <rect x="0" y="0" width="16933" height="12700"/>
  </clipPath>
  <clipPath id="presentation_clip_path_shrink" clipPathUnits="userSpaceOnUse">
   <rect x="16" y="12" width="16900" height="12675"/>
  </clipPath>
 </defs>
 <defs class="TextShapeIndex">
  <g ooo:slide="id1" ooo:id-list="id3"/>
 </defs>
 <defs class="EmbeddedBulletChars">
  <g id="bullet-char-template-57356" transform="scale(0.00048828125,-0.00048828125)">
   <path d="M 580,1141 L 1163,571 580,0 -4,571 580,1141 Z"/>
  </g>
  <g id="bullet-char-template-57354" transform="scale(0.00048828125,-0.00048828125)">
   <path d="M 8,1128 L 1137,1128 1137,0 8,0 8,1128 Z"/>
  </g>
  <g id="bullet-char-template-10146" transform="scale(0.00048828125,-0.00048828125)">
   <path d="M 174,0 L 602,739 174,1481 1456,739 174,0 Z M 1358,739 L 309,1346 659,739 1358,739 Z"/>
  </g>
  <g id="bullet-char-template-10132" transform="scale(0.00048828125,-0.00048828125)">
   <path d="M 2015,739 L 1276,0 717,0 1260,543 174,543 174,936 1260,936 717,1481 1274,1481 2015,739 Z"/>
  </g>
  <g id="bullet-char-template-10007" transform="scale(0.00048828125,-0.00048828125)">
   <path d="M 0,-2 C -7,14 -16,27 -25,37 L 356,567 C 262,823 215,952 215,954 215,979 228,992 255,992 264,992 276,990 289,987 310,991 331,999 354,1012 L 381,999 492,748 772,1049 836,1024 860,1049 C 881,1039 901,1025 922,1006 886,937 835,863 770,784 769,783 710,716 594,584 L 774,223 C 774,196 753,168 711,139 L 727,119 C 717,90 699,76 672,76 641,76 570,178 457,381 L 164,-76 C 142,-110 111,-127 72,-127 30,-127 9,-110 8,-76 1,-67 -2,-52 -2,-32 -2,-23 -1,-13 0,-2 Z"/>
  </g>
  <g id="bullet-char-template-10004" transform="scale(0.00048828125,-0.00048828125)">
   <path d="M 285,-33 C 182,-33 111,30 74,156 52,228 41,333 41,471 41,549 55,616 82,672 116,743 169,778 240,778 293,778 328,747 346,684 L 369,508 C 377,444 397,411 428,410 L 1163,1116 C 1174,1127 1196,1133 1229,1133 1271,1133 1292,1118 1292,1087 L 1292,965 C 1292,929 1282,901 1262,881 L 442,47 C 390,-6 338,-33 285,-33 Z"/>
  </g>
  <g id="bullet-char-template-9679" transform="scale(0.00048828125,-0.00048828125)">
   <path d="M 813,0 C 632,0 489,54 383,161 276,268 223,411 223,592 223,773 276,916 383,1023 489,1130 632,1184 813,1184 992,1184 1136,1130 1245,1023 1353,916 1407,772 1407,592 1407,412 1353,268 1245,161 1136,54 992,0 813,0 Z"/>
  </g>
  <g id="bullet-char-template-8226" transform="scale(0.00048828125,-0.00048828125)">
   <path d="M 346,457 C 273,457 209,483 155,535 101,586 74,649 74,723 74,796 101,859 155,911 209,963 273,989 346,989 419,989 480,963 531,910 582,859 608,796 608,723 608,648 583,586 532,535 482,483 420,457 346,457 Z"/>
  </g>
  <g id="bullet-char-template-8211" transform="scale(0.00048828125,-0.00048828125)">
   <path d="M -4,459 L 1135,459 1135,606 -4,606 -4,459 Z"/>
  </g>
  <g id="bullet-char-template-61548" transform="scale(0.00048828125,-0.00048828125)">
   <path d="M 173,740 C 173,903 231,1043 346,1159 462,1274 601,1332 765,1332 928,1332 1067,1274 1183,1159 1299,1043 1357,903 1357,740 1357,577 1299,437 1183,322 1067,206 928,148 765,148 601,148 462,206 346,322 231,437 173,577 173,740 Z"/>
  </g>
 </defs>
 <defs class="TextEmbeddedBitmaps"/>
 <g>
  <g id="id2" class="Master_Slide">
   <g id="bg-id2" class="Background"/>
   <g id="bo-id2" class="BackgroundObjects"/>
  </g>
 </g>
 <g class="SlideGroup">
  <g>
   <g id="container-id1">
    <g id="id1" class="Slide" clip-path="url(#presentation_clip_path)">
     <g class="Page">
      <g class="Graphic">
       <g id="id3">
        <rect class="BoundingBox" stroke="none" fill="none" x="0" y="0" width="16933" height="12700"/>
        <defs>
         <clipPath id="clip_path_1" clipPathUnits="userSpaceOnUse">
          <path d="M 0,0 L 16932,0 16932,12699 0,12699 0,0 Z"/>
         </clipPath>
        </defs>
        <g clip-path="url(#clip_path_1)">
         <path fill="rgb(189,61,68)" stroke="none" d="M 0,0 L 24128,0 24128,977 0,977 0,0 Z M 0,1954 L 24128,1954 24128,2932 0,2932 0,1954 Z M 0,3906 L 24128,3906 24128,4886 0,4886 0,3906 Z M 0,5861 L 24128,5861 24128,6838 0,6838 0,5861 Z M 0,7815 L 24128,7815 24128,8793 0,8793 0,7815 Z M 0,9767 L 24128,9767 24128,10745 0,10745 0,9767 Z M 0,11722 L 24128,11722 24128,12699 0,12699 0,11722 Z"/>
         <path fill="rgb(255,255,255)" stroke="none" d="M 0,977 L 24128,977 24128,1954 0,1954 0,977 Z M 0,2932 L 24128,2932 24128,3906 0,3906 0,2932 Z M 0,4884 L 24128,4884 24128,5861 0,5861 0,4884 Z M 0,6838 L 24128,6838 24128,7815 0,7815 0,6838 Z M 0,8793 L 24128,8793 24128,9770 0,9770 0,8793 Z M 0,10745 L 24128,10745 24128,11722 0,11722 0,10745 Z"/>
         <path fill="rgb(25,47,93)" stroke="none" d="M 0,0 L 9651,0 9651,6838 0,6838 0,0 Z"/>
         <path fill="rgb(255,255,255)" stroke="none" d="M 804,293 L 893,563 1176,563 947,729 1034,1002 804,833 575,1000 662,729 432,563 719,563 804,293 Z M 2413,293 L 2500,563 2785,563 2555,729 2641,1002 2413,833 2183,1000 2269,729 2041,563 2324,563 2413,293 Z M 4021,293 L 4110,563 4390,563 4162,729 4249,1002 4018,833 3790,1000 3877,729 3646,563 3931,563 4021,293 Z M 5630,293 L 5717,563 6002,563 5772,729 5861,1002 5630,833 5400,1000 5489,729 5258,563 5541,563 5630,293 Z M 7237,293 L 7327,563 7609,563 7381,729 7468,1002 7237,833 7009,1000 7096,729 6868,563 7151,563 7237,293 Z M 8847,293 L 8934,563 9219,563 8989,729 9078,1002 8847,833 8616,1000 8706,729 8475,563 8760,563 8847,293 Z M 1610,977 L 1697,1248 1982,1248 1751,1414 1835,1684 1612,1518 1382,1684 1463,1414 1240,1248 1523,1248 1610,977 Z M 3217,977 L 3306,1248 3589,1248 3358,1414 3448,1684 3217,1518 2986,1684 3076,1414 2845,1248 3130,1248 3217,977 Z M 4827,977 L 4913,1248 5199,1248 4968,1414 5055,1684 4827,1518 4596,1684 4683,1414 4455,1248 4737,1248 4827,977 Z M 6434,977 L 6523,1248 6806,1248 6575,1414 6664,1684 6434,1518 6206,1684 6292,1414 6062,1248 6350,1248 6434,977 Z M 8044,977 L 8130,1248 8416,1248 8185,1414 8272,1684 8044,1518 7813,1684 7900,1414 7671,1248 7954,1248 8044,977 Z M 804,1659 L 893,1935 1176,1935 947,2101 1034,2371 804,2202 575,2371 662,2098 432,1932 719,1932 804,1659 Z M 2413,1659 L 2500,1932 2785,1932 2555,2098 2641,2369 2413,2200 2183,2369 2269,2096 2041,1930 2324,1930 2413,1659 Z M 4021,1659 L 4110,1932 4390,1932 4162,2098 4249,2369 4018,2200 3790,2369 3877,2096 3646,1930 3931,1930 4021,1659 Z M 5630,1659 L 5717,1932 6002,1932 5772,2098 5861,2369 5630,2200 5400,2369 5489,2096 5258,1930 5541,1930 5630,1659 Z M 7237,1659 L 7327,1932 7609,1932 7381,2098 7468,2369 7237,2200 7009,2369 7096,2096 6868,1930 7151,1930 7237,1659 Z M 8847,1659 L 8934,1932 9219,1932 8989,2098 9078,2369 8847,2200 8616,2369 8706,2096 8475,1930 8760,1930 8847,1659 Z M 1610,2344 L 1697,2614 1982,2614 1751,2780 1838,3053 1610,2885 1379,3051 1466,2780 1238,2614 1520,2614 1610,2344 Z M 3217,2344 L 3306,2614 3589,2614 3358,2780 3448,3053 3217,2885 2986,3051 3076,2780 2845,2614 3130,2614 3217,2344 Z M 4827,2344 L 4913,2614 5199,2614 4968,2780 5055,3053 4827,2885 4596,3051 4683,2780 4455,2614 4737,2614 4827,2344 Z M 6434,2344 L 6523,2614 6806,2614 6578,2780 6664,3053 6434,2885 6206,3051 6292,2780 6062,2614 6350,2614 6434,2344 Z M 8044,2344 L 8130,2614 8416,2614 8185,2780 8272,3053 8044,2885 7813,3051 7900,2780 7671,2614 7954,2614 8044,2344 Z M 804,3028 L 893,3299 1176,3299 947,3465 1034,3738 804,3569 575,3735 662,3465 432,3299 719,3299 804,3028 Z M 2413,3028 L 2500,3299 2785,3299 2555,3465 2641,3735 2413,3569 2183,3735 2269,3465 2041,3299 2324,3299 2413,3028 Z M 4021,3028 L 4110,3299 4390,3299 4162,3465 4249,3738 4018,3569 3790,3735 3877,3465 3646,3299 3931,3299 4021,3028 Z M 5630,3028 L 5717,3299 6002,3299 5772,3465 5861,3738 5630,3569 5400,3735 5489,3465 5258,3299 5541,3299 5630,3028 Z M 7237,3028 L 7327,3299 7609,3299 7381,3465 7468,3738 7237,3569 7009,3735 7096,3465 6868,3299 7151,3299 7237,3028 Z M 8847,3028 L 8934,3299 9219,3299 8989,3465 9078,3738 8847,3569 8616,3735 8706,3465 8475,3299 8760,3299 8847,3028 Z M 1610,3713 L 1697,3983 1982,3983 1751,4149 1838,4420 1610,4251 1379,4420 1466,4147 1238,3981 1520,3981 1610,3713 Z M 3217,3713 L 3306,3983 3589,3983 3358,4149 3448,4420 3217,4251 2986,4420 3076,4147 2845,3981 3130,3981 3217,3713 Z M 4827,3713 L 4913,3983 5199,3983 4968,4149 5055,4420 4827,4251 4596,4420 4683,4147 4455,3981 4737,3981 4827,3713 Z M 6434,3713 L 6523,3983 6806,3983 6578,4149 6664,4420 6434,4251 6206,4420 6292,4147 6062,3981 6350,3981 6434,3713 Z M 8044,3713 L 8130,3983 8416,3983 8185,4149 8272,4420 8044,4251 7813,4420 7900,4147 7671,3981 7954,3981 8044,3713 Z M 804,4395 L 893,4668 1176,4668 947,4834 1034,5102 804,4936 575,5102 662,4832 432,4665 719,4665 804,4395 Z M 2413,4395 L 2500,4668 2785,4668 2555,4834 2644,5102 2413,4936 2183,5102 2272,4832 2041,4665 2324,4665 2413,4395 Z M 4021,4395 L 4110,4668 4390,4668 4162,4834 4249,5102 4018,4936 3790,5102 3877,4832 3646,4665 3931,4665 4021,4395 Z M 5630,4395 L 5717,4668 6002,4668 5772,4834 5861,5102 5630,4936 5400,5102 5489,4832 5258,4665 5541,4665 5630,4395 Z M 7237,4395 L 7327,4668 7609,4668 7381,4834 7468,5102 7237,4936 7009,5102 7096,4832 6868,4665 7151,4665 7237,4395 Z M 8847,4395 L 8934,4668 9219,4668 8989,4834 9078,5102 8847,4936 8616,5102 8706,4832 8475,4665 8760,4665 8847,4395 Z M 1610,5080 L 1697,5350 1982,5350 1751,5516 1838,5789 1610,5620 1379,5786 1466,5516 1238,5350 1520,5350 1610,5080 Z M 3217,5080 L 3306,5350 3589,5350 3358,5516 3448,5789 3217,5620 2986,5786 3076,5516 2845,5350 3130,5350 3217,5080 Z M 4827,5080 L 4913,5350 5199,5350 4968,5516 5055,5789 4827,5620 4596,5786 4683,5516 4455,5350 4737,5350 4827,5080 Z M 6434,5080 L 6523,5350 6806,5350 6578,5516 6664,5789 6434,5620 6206,5786 6292,5516 6062,5350 6350,5350 6434,5080 Z M 8044,5080 L 8130,5350 8416,5350 8185,5516 8272,5789 8044,5620 7813,5786 7900,5516 7671,5350 7954,5350 8044,5080 Z M 804,5764 L 893,6035 1176,6035 947,6201 1034,6471 804,6305 575,6471 662,6198 432,6032 719,6032 804,5764 Z M 2413,5764 L 2500,6035 2785,6035 2555,6201 2644,6471 2413,6305 2183,6471 2272,6198 2041,6032 2324,6032 2413,5764 Z M 4021,5764 L 4110,6035 4390,6035 4167,6201 4254,6471 4023,6305 3795,6471 3882,6198 3651,6032 3936,6032 4021,5764 Z M 5630,5764 L 5717,6035 6002,6035 5772,6201 5861,6471 5630,6305 5400,6471 5489,6198 5258,6032 5541,6032 5630,5764 Z M 7237,5764 L 7327,6035 7609,6035 7381,6201 7468,6471 7237,6305 7009,6471 7096,6198 6868,6032 7151,6032 7237,5764 Z M 8847,5764 L 8934,6035 9219,6035 8989,6201 9078,6471 8847,6305 8616,6471 8706,6198 8475,6032 8760,6032 8847,5764 Z"/>
        </g>
       </g>
      </g>
     </g>
    </g>
   </g>
  </g>
 </g>
</svg>