<?xml version="1.0" encoding="UTF-8"?>
<!DOCTYPE svg PUBLIC "-//W3C//DTD SVG 1.1//EN" "http://www.w3.org/Graphics/SVG/1.1/DTD/svg11.dtd">
<svg version="1.2" width="4.76mm" height="4.76mm" viewBox="0 0 476 476" preserveAspectRatio="xMidYMid" fill-rule="evenodd" stroke-width="28.222" stroke-linejoin="round" xmlns="http://www.w3.org/2000/svg" xmlns:ooo="http://xml.openoffice.org/svg/export" xmlns:xlink="http://www.w3.org/1999/xlink" xmlns:presentation="http://sun.com/xmlns/staroffice/presentation" xmlns:smil="http://www.w3.org/2001/SMIL20/" xmlns:anim="urn:oasis:names:tc:opendocument:xmlns:animation:1.0" xml:space="preserve">
 <defs class="ClipPathGroup">
  <clipPath id="presentation_clip_path" clipPathUnits="userSpaceOnUse">
   <rect x="0" y="0" width="476" height="476"/>
  </clipPath>
  <clipPath id="presentation_clip_path_shrink" clipPathUnits="userSpaceOnUse">
   <rect x="0" y="0" width="476" height="476"/>
  </clipPath>
 </defs>
 <defs class="TextShapeIndex">
  <g ooo:slide="id1" ooo:id-list="id3"/>
 </defs>
 <defs class="EmbeddedBulletChars">
  <g id="bullet-char-template-57356" transform="scale(0.00048828125,-0.00048828125)">
   <path d="M 580,1141 L 1163,571 580,0 -4,571 580,1141 Z"/>
  </g>
  <g id="bullet-char-template-57354" transform="scale(0.00048828125,-0.00048828125)">
   <path d="M 8,1128 L 1137,1128 1137,0 8,0 8,1128 Z"/>
  </g>
  <g id="bullet-char-template-10146" transform="scale(0.00048828125,-0.00048828125)">
   <path d="M 174,0 L 602,739 174,1481 1456,739 174,0 Z M 1358,739 L 309,1346 659,739 1358,739 Z"/>
  </g>
  <g id="bullet-char-template-10132" transform="scale(0.00048828125,-0.00048828125)">
   <path d="M 2015,739 L 1276,0 717,0 1260,543 174,543 174,936 1260,936 717,1481 1274,1481 2015,739 Z"/>
  </g>
  <g id="bullet-char-template-10007" transform="scale(0.00048828125,-0.00048828125)">
   <path d="M 0,-2 C -7,14 -16,27 -25,37 L 356,567 C 262,823 215,952 215,954 215,979 228,992 255,992 264,992 276,990 289,987 310,991 331,999 354,1012 L 381,999 492,748 772,1049 836,1024 860,1049 C 881,1039 901,1025 922,1006 886,937 835,863 770,784 769,783 710,716 594,584 L 774,223 C 774,196 753,168 711,139 L 727,119 C 717,90 699,76 672,76 641,76 570,178 457,381 L 164,-76 C 142,-110 111,-127 72,-127 30,-127 9,-110 8,-76 1,-67 -2,-52 -2,-32 -2,-23 -1,-13 0,-2 Z"/>
  </g>
  <g id="bullet-char-template-10004" transform="scale(0.00048828125,-0.00048828125)">
   <path d="M 285,-33 C 182,-33 111,30 74,156 52,228 41,333 41,471 41,549 55,616 82,672 116,743 169,778 240,778 293,778 328,747 346,684 L 369,508 C 377,444 397,411 428,410 L 1163,1116 C 1174,1127 1196,1133 1229,1133 1271,1133 1292,1118 1292,1087 L 1292,965 C 1292,929 1282,901 1262,881 L 442,47 C 390,-6 338,-33 285,-33 Z"/>
  </g>
  <g id="bullet-char-template-9679" transform="scale(0.00048828125,-0.00048828125)">
   <path d="M 813,0 C 632,0 489,54 383,161 276,268 223,411 223,592 223,773 276,916 383,1023 489,1130 632,1184 813,1184 992,1184 1136,1130 1245,1023 1353,916 1407,772 1407,592 1407,412 1353,268 1245,161 1136,54 992,0 813,0 Z"/>
  </g>
  <g id="bullet-char-template-8226" transform="scale(0.00048828125,-0.00048828125)">
   <path d="M 346,457 C 273,457 209,483 155,535 101,586 74,649 74,723 74,796 101,859 155,911 209,963 273,989 346,989 419,989 480,963 531,910 582,859 608,796 608,723 608,648 583,586 532,535 482,483 420,457 346,457 Z"/>
  </g>
  <g id="bullet-char-template-8211" transform="scale(0.00048828125,-0.00048828125)">
   <path d="M -4,459 L 1135,459 1135,606 -4,606 -4,459 Z"/>
  </g>
  <g id="bullet-char-template-61548" transform="scale(0.00048828125,-0.00048828125)">
   <path d="M 173,740 C 173,903 231,1043 346,1159 462,1274 601,1332 765,1332 928,1332 1067,1274 1183,1159 1299,1043 1357,903 1357,740 1357,577 1299,437 1183,322 1067,206 928,148 765,148 601,148 462,206 346,322 231,437 173,577 173,740 Z"/>
  </g>
 </defs>
 <defs class="TextEmbeddedBitmaps"/>
 <g>
  <g id="id2" class="Master_Slide">
   <g id="bg-id2" class="Background"/>
   <g id="bo-id2" class="BackgroundObjects"/>
  </g>
 </g>
 <g class="SlideGroup">
  <g>
   <g id="container-id1">
    <g id="id1" class="Slide" clip-path="url(#presentation_clip_path)">
     <g class="Page">
      <g class="Graphic">
       <g id="id3">
        <rect class="BoundingBox" stroke="none" fill="none" x="0" y="0" width="476" height="476"/>
        <defs>
         <clipPath id="clip_path_1" clipPathUnits="userSpaceOnUse">
          <path d="M 0,0 L 475,0 475,475 0,475 0,0 Z"/>
         </clipPath>
        </defs>
        <g clip-path="url(#clip_path_1)">
         <path fill="rgb(0,0,0)" stroke="none" d="M 270,105 C 269,94 266,85 260,76 254,64 245,56 234,49 220,42 221,32 225,26 229,20 236,20 247,30 255,39 260,46 266,56 275,72 281,88 283,106 L 270,105 Z"/>
         <path fill="none" stroke="rgb(0,0,0)" stroke-width="11" stroke-linejoin="miter" d="M 270,105 L 270,105 C 269,94 266,85 260,76 254,64 245,56 234,49 220,42 221,32 225,26 229,20 236,20 247,30 L 247,30 C 255,39 260,46 266,56 275,72 281,88 283,106 L 270,105 Z"/>
         <path fill="none" stroke="rgb(0,0,0)" stroke-width="37" stroke-linejoin="round" stroke-linecap="round" d="M 172,210 L 172,210 C 172,211 172,212 172,212 172,235 177,255 189,275 200,295 215,309 235,321 255,333 274,338 297,338 321,338 340,333 360,321 380,309 395,295 406,275 418,255 423,235 423,212 423,212 423,211 423,210 423,141 383,79 297,86 228,91 172,129 172,210 L 172,210 Z"/>
         <path fill="rgb(0,0,0)" stroke="none" d="M 172,212 C 172,235 177,255 189,275 200,295 215,309 235,321 255,333 274,338 297,338 321,338 340,333 360,321 380,309 395,295 406,275 418,255 423,235 423,212 423,212 423,211 423,210 423,141 383,79 297,86 228,91 172,129 172,210 172,211 172,212 172,212 Z"/>
         <path fill="rgb(255,255,255)" stroke="none" d="M 389,133 C 389,133 428,174 408,212 400,226 376,217 375,199 374,181 382,166 369,145 360,130 376,122 389,133 L 389,133 Z"/>
         <path fill="rgb(0,0,0)" stroke="none" d="M 286,90 C 286,90 317,-24 457,36 457,36 392,144 286,90 L 286,90 Z"/>
         <path fill="none" stroke="rgb(0,0,0)" stroke-width="37" stroke-linejoin="round" stroke-linecap="round" d="M 286,90 C 286,90 317,-24 457,36 457,36 392,144 286,90 L 286,90 Z"/>
         <path fill="rgb(255,255,255)" stroke="none" d="M 286,90 C 286,90 317,-24 457,36 457,36 392,144 286,90 L 286,90 Z"/>
         <path fill="rgb(0,0,0)" stroke="none" d="M 333,76 C 363,59 392,49 426,44 354,30 267,90 267,90 267,90 275,112 278,119 295,102 312,89 333,76 Z"/>
         <path fill="none" stroke="rgb(0,0,0)" stroke-width="1" stroke-linejoin="round" stroke-linecap="round" d="M 278,119 L 278,119 C 295,102 312,89 333,76 363,59 392,49 426,44 354,30 267,90 267,90 267,90 275,112 278,119 L 278,119 Z"/>
         <path fill="rgb(255,255,255)" stroke="none" d="M 288,261 C 280,238 236,218 176,216 171,215 168,215 163,215 138,215 116,221 94,234 79,242 68,252 57,265 54,268 51,271 49,275 45,283 42,290 42,299 44,318 49,334 59,351 71,372 86,387 107,399 126,410 145,415 168,416 251,422 268,391 279,366 288,344 292,325 292,301 292,287 291,275 288,261 Z"/>
         <path fill="none" stroke="rgb(255,255,255)" stroke-width="84" stroke-linejoin="round" stroke-linecap="round" d="M 288,261 L 288,261 C 280,238 236,218 176,216 L 176,216 C 171,215 168,215 163,215 138,215 116,221 94,234 79,242 68,252 57,265 L 57,265 C 54,268 51,271 49,275 45,283 42,290 42,299 L 42,299 42,299 C 44,318 49,334 59,351 71,372 86,387 107,399 126,410 145,415 168,416 251,422 268,391 279,366 L 279,366 C 288,344 292,325 292,301 292,287 291,275 288,261 L 288,261 Z"/>
         <path fill="none" stroke="rgb(0,0,0)" stroke-width="37" stroke-linejoin="round" stroke-linecap="round" d="M 288,261 L 288,261 C 280,238 236,218 176,216 L 176,216 C 171,215 168,215 163,215 138,215 116,221 94,234 79,242 68,252 57,265 L 57,265 C 54,268 51,271 49,275 45,283 42,290 42,299 L 42,299 42,299 C 44,318 49,334 59,351 71,372 86,387 107,399 126,410 145,415 168,416 251,422 268,391 279,366 L 279,366 C 288,344 292,325 292,301 292,287 291,275 288,261 L 288,261 Z"/>
         <path fill="rgb(255,255,255)" stroke="none" d="M 288,261 C 280,238 236,218 176,216 171,215 168,215 163,215 138,215 116,221 94,234 79,242 68,252 57,265 54,268 51,271 49,275 45,283 42,290 42,299 44,318 49,334 59,351 71,372 86,387 107,399 126,410 145,415 168,416 251,422 268,391 279,366 288,344 292,325 292,301 292,287 291,275 288,261 Z"/>
         <path fill="none" stroke="rgb(0,0,0)" stroke-width="2" stroke-linejoin="miter" d="M 288,261 L 288,261 C 280,238 236,218 176,216 L 176,216 C 171,215 168,215 163,215 138,215 116,221 94,234 79,242 68,252 57,265 L 57,265 C 54,268 51,271 49,275 45,283 42,290 42,299 L 42,299 42,299 C 44,318 49,334 59,351 71,372 86,387 107,399 126,410 145,415 168,416 251,422 268,391 279,366 L 279,366 C 288,344 292,325 292,301 292,287 291,275 288,261 L 288,261 Z"/>
         <path fill="rgb(0,0,0)" stroke="none" d="M 288,261 C 280,238 236,218 176,216 171,215 168,215 163,215 138,215 116,221 94,234 79,242 68,252 57,265 54,268 51,271 49,275 45,283 42,290 42,299 44,318 49,334 59,351 71,372 86,387 107,399 126,410 145,415 168,416 251,422 268,391 279,366 288,344 292,325 292,301 292,287 291,275 288,261 Z"/>
         <path fill="rgb(255,255,255)" stroke="none" d="M 45,317 C 48,321 50,323 53,326 82,353 170,372 243,353 266,347 283,318 257,304 253,302 250,299 251,296 252,294 253,294 258,294 259,294 260,294 261,294 267,294 272,293 277,290 282,287 286,283 289,278 290,277 290,276 291,274 290,270 289,266 287,261 280,238 235,218 176,216 171,215 168,215 163,215 137,215 116,221 93,234 79,242 67,252 56,265 54,268 51,271 49,275 45,282 42,290 42,299 43,306 44,311 45,317 Z"/>
         <path fill="none" stroke="rgb(0,0,0)" stroke-width="11" stroke-linejoin="round" stroke-linecap="round" d="M 51,263 L 51,263 C 48,266 45,269 43,273 39,280 38,286 38,294 38,301 39,308 43,314 46,319 49,323 53,326 81,353 170,372 243,353 266,347 283,318 256,304 253,302 250,299 251,296 252,294 253,294 258,294 L 258,294 C 259,294 260,294 262,294 267,294 272,293 277,290 282,287 286,283 289,278 290,276 291,274 291,272 L 291,272 C 292,270 292,269 292,267 292,260 290,255 287,249 284,244 280,240 274,237 273,236 272,235 271,235"/>
         <path fill="rgb(0,0,0)" stroke="none" d="M 161,304 C 134,303 112,293 113,281 113,268 136,255 163,256 190,257 212,272 211,284 211,297 188,305 161,304 Z"/>
         <path fill="none" stroke="rgb(0,0,0)" stroke-width="15" stroke-linejoin="round" stroke-linecap="round" d="M 211,284 C 211,297 188,305 161,304 134,303 112,293 113,281 113,268 136,255 163,256 190,257 212,272 211,284 L 211,284 Z"/>
         <path fill="none" stroke="rgb(255,255,255)" stroke-width="15" stroke-linejoin="round" stroke-linecap="round" d="M 257,320 L 257,320 C 259,323 260,325 262,328 268,338 271,348 271,360 271,365 270,370 269,375 L 269,375 C 269,388 266,399 259,410 252,422 244,430 232,437 231,438 230,438 229,439"/>
        </g>
       </g>
      </g>
     </g>
    </g>
   </g>
  </g>
 </g>
</svg>