<?xml version="1.0" encoding="UTF-8"?>
<!DOCTYPE svg PUBLIC "-//W3C//DTD SVG 1.1//EN" "http://www.w3.org/Graphics/SVG/1.1/DTD/svg11.dtd">
<svg version="1.2" width="4.76mm" height="4.76mm" viewBox="0 0 476 476" preserveAspectRatio="xMidYMid" fill-rule="evenodd" stroke-width="28.222" stroke-linejoin="round" xmlns="http://www.w3.org/2000/svg" xmlns:ooo="http://xml.openoffice.org/svg/export" xmlns:xlink="http://www.w3.org/1999/xlink" xmlns:presentation="http://sun.com/xmlns/staroffice/presentation" xmlns:smil="http://www.w3.org/2001/SMIL20/" xmlns:anim="urn:oasis:names:tc:opendocument:xmlns:animation:1.0" xml:space="preserve">
 <defs class="ClipPathGroup">
  <clipPath id="presentation_clip_path" clipPathUnits="userSpaceOnUse">
   <rect x="0" y="0" width="476" height="476"/>
  </clipPath>
  <clipPath id="presentation_clip_path_shrink" clipPathUnits="userSpaceOnUse">
   <rect x="0" y="0" width="476" height="476"/>
  </clipPath>
 </defs>
 <defs class="TextShapeIndex">
  <g ooo:slide="id1" ooo:id-list="id3"/>
 </defs>
 <defs class="EmbeddedBulletChars">
  <g id="bullet-char-template-57356" transform="scale(0.00048828125,-0.00048828125)">
   <path d="M 580,1141 L 1163,571 580,0 -4,571 580,1141 Z"/>
  </g>
  <g id="bullet-char-template-57354" transform="scale(0.00048828125,-0.00048828125)">
   <path d="M 8,1128 L 1137,1128 1137,0 8,0 8,1128 Z"/>
  </g>
  <g id="bullet-char-template-10146" transform="scale(0.00048828125,-0.00048828125)">
   <path d="M 174,0 L 602,739 174,1481 1456,739 174,0 Z M 1358,739 L 309,1346 659,739 1358,739 Z"/>
  </g>
  <g id="bullet-char-template-10132" transform="scale(0.00048828125,-0.00048828125)">
   <path d="M 2015,739 L 1276,0 717,0 1260,543 174,543 174,936 1260,936 717,1481 1274,1481 2015,739 Z"/>
  </g>
  <g id="bullet-char-template-10007" transform="scale(0.00048828125,-0.00048828125)">
   <path d="M 0,-2 C -7,14 -16,27 -25,37 L 356,567 C 262,823 215,952 215,954 215,979 228,992 255,992 264,992 276,990 289,987 310,991 331,999 354,1012 L 381,999 492,748 772,1049 836,1024 860,1049 C 881,1039 901,1025 922,1006 886,937 835,863 770,784 769,783 710,716 594,584 L 774,223 C 774,196 753,168 711,139 L 727,119 C 717,90 699,76 672,76 641,76 570,178 457,381 L 164,-76 C 142,-110 111,-127 72,-127 30,-127 9,-110 8,-76 1,-67 -2,-52 -2,-32 -2,-23 -1,-13 0,-2 Z"/>
  </g>
  <g id="bullet-char-template-10004" transform="scale(0.00048828125,-0.00048828125)">
   <path d="M 285,-33 C 182,-33 111,30 74,156 52,228 41,333 41,471 41,549 55,616 82,672 116,743 169,778 240,778 293,778 328,747 346,684 L 369,508 C 377,444 397,411 428,410 L 1163,1116 C 1174,1127 1196,1133 1229,1133 1271,1133 1292,1118 1292,1087 L 1292,965 C 1292,929 1282,901 1262,881 L 442,47 C 390,-6 338,-33 285,-33 Z"/>
  </g>
  <g id="bullet-char-template-9679" transform="scale(0.00048828125,-0.00048828125)">
   <path d="M 813,0 C 632,0 489,54 383,161 276,268 223,411 223,592 223,773 276,916 383,1023 489,1130 632,1184 813,1184 992,1184 1136,1130 1245,1023 1353,916 1407,772 1407,592 1407,412 1353,268 1245,161 1136,54 992,0 813,0 Z"/>
  </g>
  <g id="bullet-char-template-8226" transform="scale(0.00048828125,-0.00048828125)">
   <path d="M 346,457 C 273,457 209,483 155,535 101,586 74,649 74,723 74,796 101,859 155,911 209,963 273,989 346,989 419,989 480,963 531,910 582,859 608,796 608,723 608,648 583,586 532,535 482,483 420,457 346,457 Z"/>
  </g>
  <g id="bullet-char-template-8211" transform="scale(0.00048828125,-0.00048828125)">
   <path d="M -4,459 L 1135,459 1135,606 -4,606 -4,459 Z"/>
  </g>
  <g id="bullet-char-template-61548" transform="scale(0.00048828125,-0.00048828125)">
   <path d="M 173,740 C 173,903 231,1043 346,1159 462,1274 601,1332 765,1332 928,1332 1067,1274 1183,1159 1299,1043 1357,903 1357,740 1357,577 1299,437 1183,322 1067,206 928,148 765,148 601,148 462,206 346,322 231,437 173,577 173,740 Z"/>
  </g>
 </defs>
 <defs class="TextEmbeddedBitmaps"/>
 <g>
  <g id="id2" class="Master_Slide">
   <g id="bg-id2" class="Background"/>
   <g id="bo-id2" class="BackgroundObjects"/>
  </g>
 </g>
 <g class="SlideGroup">
  <g>
   <g id="container-id1">
    <g id="id1" class="Slide" clip-path="url(#presentation_clip_path)">
     <g class="Page">
      <g class="Graphic">
       <g id="id3">
        <rect class="BoundingBox" stroke="none" fill="none" x="0" y="0" width="476" height="476"/>
        <defs>
         <clipPath id="clip_path_1" clipPathUnits="userSpaceOnUse">
          <path d="M 0,0 L 475,0 475,475 0,475 0,0 Z"/>
         </clipPath>
        </defs>
        <g clip-path="url(#clip_path_1)">
         <path fill="rgb(0,0,0)" stroke="none" d="M 0,460 L 15,460 15,475 0,475 0,460 Z"/>
         <path fill="rgb(0,0,0)" stroke="none" d="M 460,460 L 475,460 475,475 460,475 460,460 Z"/>
         <path fill="rgb(0,0,0)" stroke="none" d="M 373,230 C 373,232 372,234 371,236 370,238 369,240 367,241 364,242 362,243 360,243 358,243 356,242 354,241 352,240 350,238 349,236 348,234 347,232 347,230 347,227 348,225 349,223 350,221 352,220 354,219 356,217 358,217 360,217 362,217 364,217 367,219 369,220 370,221 371,223 372,225 373,227 373,230 L 373,230 Z"/>
         <path fill="rgb(0,0,0)" stroke="none" d="M 230,222 L 192,222 C 193,228 195,232 198,237 202,245 207,250 215,254 220,257 224,259 230,260 L 230,222 Z"/>
         <path fill="rgb(0,0,0)" stroke="none" d="M 128,306 C 128,309 127,311 126,313 125,315 123,316 121,318 119,319 117,319 115,319 113,319 111,319 108,318 106,316 105,315 104,313 103,311 102,309 102,306 102,304 103,302 104,300 105,298 106,296 108,295 111,294 113,293 115,293 117,293 119,294 121,295 123,296 125,298 126,300 127,302 128,304 128,306 L 128,306 Z"/>
         <path fill="rgb(0,0,0)" stroke="none" d="M 230,169 C 224,170 220,172 215,175 207,179 202,184 198,192 195,197 193,201 192,207 L 230,207 230,169 Z"/>
         <path fill="rgb(0,0,0)" stroke="none" d="M 46,383 L 138,383 138,398 46,398 46,383 Z"/>
         <path fill="rgb(0,0,0)" stroke="none" d="M 337,383 L 429,383 429,398 337,398 337,383 Z"/>
         <path fill="rgb(0,0,0)" stroke="none" d="M 414,414 L 352,414 352,460 337,460 337,414 322,414 322,368 414,368 414,192 238,122 61,192 61,368 153,368 153,414 138,414 138,460 123,460 123,414 61,414 61,460 31,460 31,475 444,475 444,460 414,460 414,414 Z M 322,222 C 322,222 322,222 322,222 327,222 332,221 337,218 342,215 345,212 348,207 351,202 352,197 352,191 352,191 352,191 352,191 L 368,191 C 368,197 369,202 372,207 375,212 378,215 383,218 388,221 393,222 398,222 L 398,237 C 393,237 388,239 383,242 378,244 375,248 372,253 369,258 368,262 368,268 L 353,268 C 352,262 351,258 348,253 346,248 342,244 337,242 332,239 327,237 322,237 L 322,222 Z M 268,161 C 278,167 285,174 290,184 296,194 299,203 299,214 299,226 296,235 290,245 285,255 278,262 268,268 258,273 249,276 237,276 226,276 216,273 207,268 197,262 190,255 184,245 179,235 176,226 176,214 L 176,214 C 176,203 179,194 184,184 190,174 197,167 207,161 216,156 226,153 237,153 237,153 237,153 237,153 249,153 258,156 268,161 Z M 107,345 C 107,339 106,334 103,329 100,325 97,321 92,318 87,315 82,314 77,314 L 77,299 C 82,299 87,297 92,295 97,292 100,288 103,283 106,279 107,274 107,268 L 123,268 C 123,274 124,279 127,283 130,288 133,292 138,295 143,297 148,299 153,299 L 153,314 C 148,314 143,315 138,318 133,321 130,325 127,329 124,334 123,339 123,345 L 107,345 Z M 291,460 L 291,360 C 291,350 289,342 284,333 279,325 273,319 264,314 256,309 248,307 238,307 228,307 219,309 211,314 202,319 196,325 191,333 186,342 184,350 184,360 L 184,460 169,460 169,360 C 169,360 169,359 169,359 169,346 172,335 178,324 184,313 192,305 203,299 214,293 225,290 238,290 250,290 261,293 272,299 283,305 291,313 297,324 304,335 307,346 307,359 307,359 307,360 307,360 L 307,460 291,460 Z M 199,398 L 199,383 215,383 215,398 199,398 Z"/>
         <path fill="rgb(0,0,0)" stroke="none" d="M 283,222 L 245,222 245,260 245,260 C 251,259 255,257 260,254 268,250 273,245 277,237 280,232 282,228 283,222 L 283,222 Z"/>
         <path fill="rgb(0,0,0)" stroke="none" d="M 447,144 L 237,62 28,144 C 27,145 26,145 25,146 22,148 20,150 18,153 16,156 15,160 15,163 15,163 15,163 15,163 15,164 15,164 15,164 15,167 16,170 18,174 20,176 22,178 24,180 25,181 25,181 26,181 29,183 32,184 36,184 39,184 41,184 44,182 L 237,106 431,182 C 434,184 436,184 439,184 443,184 446,183 449,181 450,181 450,181 451,180 453,178 455,176 457,174 459,170 459,167 459,164 459,164 459,164 459,163 459,160 459,157 457,153 455,150 453,148 449,146 448,145 447,145 446,145 L 447,144 Z"/>
         <path fill="rgb(0,0,0)" stroke="none" d="M 245,207 L 283,207 C 282,201 280,197 277,192 273,184 268,179 260,175 255,172 251,170 245,169 L 245,207 Z"/>
         <path fill="rgb(0,0,0)" stroke="none" d="M 429,31 C 429,36 428,41 425,46 422,51 419,54 414,57 409,60 404,61 398,61 L 398,77 C 404,77 409,78 414,81 419,84 422,87 425,92 428,97 429,102 429,107 L 444,107 C 444,102 446,97 448,92 451,87 455,84 460,81 465,78 469,77 475,77 L 475,61 C 469,61 465,60 460,57 455,54 451,51 448,46 446,41 444,36 444,31 L 429,31 Z"/>
         <path fill="rgb(0,0,0)" stroke="none" d="M 92,77 C 92,71 93,66 96,61 99,56 102,53 107,50 112,47 117,46 123,46 L 123,31 C 117,31 112,29 107,27 102,24 99,20 96,15 93,10 92,6 92,0 L 77,0 C 77,6 75,10 73,15 70,20 66,24 61,27 56,29 52,31 46,31 L 46,46 C 52,46 56,47 61,50 66,53 70,56 72,61 75,66 77,71 77,77 L 92,77 Z"/>
        </g>
       </g>
      </g>
     </g>
    </g>
   </g>
  </g>
 </g>
</svg>