<?xml version="1.0" encoding="UTF-8"?>
<!DOCTYPE svg PUBLIC "-//W3C//DTD SVG 1.1//EN" "http://www.w3.org/Graphics/SVG/1.1/DTD/svg11.dtd">
<svg version="1.2" width="4.76mm" height="4.76mm" viewBox="0 0 476 476" preserveAspectRatio="xMidYMid" fill-rule="evenodd" stroke-width="28.222" stroke-linejoin="round" xmlns="http://www.w3.org/2000/svg" xmlns:ooo="http://xml.openoffice.org/svg/export" xmlns:xlink="http://www.w3.org/1999/xlink" xmlns:presentation="http://sun.com/xmlns/staroffice/presentation" xmlns:smil="http://www.w3.org/2001/SMIL20/" xmlns:anim="urn:oasis:names:tc:opendocument:xmlns:animation:1.0" xml:space="preserve">
 <defs class="ClipPathGroup">
  <clipPath id="presentation_clip_path" clipPathUnits="userSpaceOnUse">
   <rect x="0" y="0" width="476" height="476"/>
  </clipPath>
  <clipPath id="presentation_clip_path_shrink" clipPathUnits="userSpaceOnUse">
   <rect x="0" y="0" width="476" height="476"/>
  </clipPath>
 </defs>
 <defs class="TextShapeIndex">
  <g ooo:slide="id1" ooo:id-list="id3"/>
 </defs>
 <defs class="EmbeddedBulletChars">
  <g id="bullet-char-template-57356" transform="scale(0.00048828125,-0.00048828125)">
   <path d="M 580,1141 L 1163,571 580,0 -4,571 580,1141 Z"/>
  </g>
  <g id="bullet-char-template-57354" transform="scale(0.00048828125,-0.00048828125)">
   <path d="M 8,1128 L 1137,1128 1137,0 8,0 8,1128 Z"/>
  </g>
  <g id="bullet-char-template-10146" transform="scale(0.00048828125,-0.00048828125)">
   <path d="M 174,0 L 602,739 174,1481 1456,739 174,0 Z M 1358,739 L 309,1346 659,739 1358,739 Z"/>
  </g>
  <g id="bullet-char-template-10132" transform="scale(0.00048828125,-0.00048828125)">
   <path d="M 2015,739 L 1276,0 717,0 1260,543 174,543 174,936 1260,936 717,1481 1274,1481 2015,739 Z"/>
  </g>
  <g id="bullet-char-template-10007" transform="scale(0.00048828125,-0.00048828125)">
   <path d="M 0,-2 C -7,14 -16,27 -25,37 L 356,567 C 262,823 215,952 215,954 215,979 228,992 255,992 264,992 276,990 289,987 310,991 331,999 354,1012 L 381,999 492,748 772,1049 836,1024 860,1049 C 881,1039 901,1025 922,1006 886,937 835,863 770,784 769,783 710,716 594,584 L 774,223 C 774,196 753,168 711,139 L 727,119 C 717,90 699,76 672,76 641,76 570,178 457,381 L 164,-76 C 142,-110 111,-127 72,-127 30,-127 9,-110 8,-76 1,-67 -2,-52 -2,-32 -2,-23 -1,-13 0,-2 Z"/>
  </g>
  <g id="bullet-char-template-10004" transform="scale(0.00048828125,-0.00048828125)">
   <path d="M 285,-33 C 182,-33 111,30 74,156 52,228 41,333 41,471 41,549 55,616 82,672 116,743 169,778 240,778 293,778 328,747 346,684 L 369,508 C 377,444 397,411 428,410 L 1163,1116 C 1174,1127 1196,1133 1229,1133 1271,1133 1292,1118 1292,1087 L 1292,965 C 1292,929 1282,901 1262,881 L 442,47 C 390,-6 338,-33 285,-33 Z"/>
  </g>
  <g id="bullet-char-template-9679" transform="scale(0.00048828125,-0.00048828125)">
   <path d="M 813,0 C 632,0 489,54 383,161 276,268 223,411 223,592 223,773 276,916 383,1023 489,1130 632,1184 813,1184 992,1184 1136,1130 1245,1023 1353,916 1407,772 1407,592 1407,412 1353,268 1245,161 1136,54 992,0 813,0 Z"/>
  </g>
  <g id="bullet-char-template-8226" transform="scale(0.00048828125,-0.00048828125)">
   <path d="M 346,457 C 273,457 209,483 155,535 101,586 74,649 74,723 74,796 101,859 155,911 209,963 273,989 346,989 419,989 480,963 531,910 582,859 608,796 608,723 608,648 583,586 532,535 482,483 420,457 346,457 Z"/>
  </g>
  <g id="bullet-char-template-8211" transform="scale(0.00048828125,-0.00048828125)">
   <path d="M -4,459 L 1135,459 1135,606 -4,606 -4,459 Z"/>
  </g>
  <g id="bullet-char-template-61548" transform="scale(0.00048828125,-0.00048828125)">
   <path d="M 173,740 C 173,903 231,1043 346,1159 462,1274 601,1332 765,1332 928,1332 1067,1274 1183,1159 1299,1043 1357,903 1357,740 1357,577 1299,437 1183,322 1067,206 928,148 765,148 601,148 462,206 346,322 231,437 173,577 173,740 Z"/>
  </g>
 </defs>
 <defs class="TextEmbeddedBitmaps"/>
 <g>
  <g id="id2" class="Master_Slide">
   <g id="bg-id2" class="Background"/>
   <g id="bo-id2" class="BackgroundObjects"/>
  </g>
 </g>
 <g class="SlideGroup">
  <g>
   <g id="container-id1">
    <g id="id1" class="Slide" clip-path="url(#presentation_clip_path)">
     <g class="Page">
      <g class="Graphic">
       <g id="id3">
        <rect class="BoundingBox" stroke="none" fill="none" x="0" y="0" width="476" height="476"/>
        <defs>
         <clipPath id="clip_path_1" clipPathUnits="userSpaceOnUse">
          <path d="M 0,0 L 475,0 475,475 0,475 0,0 Z"/>
         </clipPath>
        </defs>
        <g clip-path="url(#clip_path_1)">
         <path fill="rgb(0,0,0)" stroke="none" d="M 299,221 L 295,221 C 278,221 262,217 246,209 L 217,194 217,194 204,207 C 205,207 206,208 207,208 212,211 215,214 218,219 220,222 223,224 226,226 230,228 233,229 238,229 238,229 238,229 238,229 239,229 240,230 242,230 243,231 244,232 245,233 246,235 246,236 246,238 L 246,255 C 246,261 245,266 242,272 238,277 235,281 229,284 226,286 224,287 221,288 L 221,311 C 221,320 219,327 214,334 214,335 213,336 213,337 L 204,350 204,370 223,350 C 224,350 224,350 225,349 226,348 227,348 229,348 230,348 232,348 233,349 235,350 236,351 236,352 237,354 237,355 237,356 L 237,414 254,403 254,339 C 254,338 255,337 256,335 256,334 257,333 258,333 L 291,308 C 293,305 295,303 297,300 301,291 304,284 304,274 304,272 304,270 304,268 304,263 304,258 303,253 L 299,221 Z"/>
         <path fill="rgb(0,0,0)" stroke="none" d="M 240,187 L 240,187 C 240,187 240,187 239,187 L 240,187 Z M 254,194 C 268,201 280,204 296,204 L 297,204 297,153 C 297,151 297,150 298,149 299,147 300,146 301,145 303,145 304,144 306,144 L 327,144 C 329,144 331,144 333,143 335,141 337,140 338,138 339,136 339,134 339,131 L 339,119 322,119 C 321,119 320,119 318,118 318,118 317,117 317,117 L 299,99 C 298,98 297,97 295,96 292,94 289,93 285,93 285,93 285,93 285,93 L 267,93 C 263,93 259,94 256,96 254,97 253,98 252,100 246,105 243,110 239,116 232,128 229,140 229,155 229,155 229,155 229,155 L 229,170 239,170 C 240,170 241,170 242,169 243,168 244,168 245,167 245,166 246,165 246,163 L 246,136 263,136 263,163 C 263,163 263,163 263,164 263,168 262,171 259,175 257,179 255,182 251,184 247,186 244,187 240,187 L 254,194 Z M 271,110 L 288,110 288,127 271,127 271,110 Z"/>
         <path fill="rgb(0,0,0)" stroke="none" d="M 271,392 L 288,380 288,331 271,344 271,392 Z"/>
         <path fill="rgb(0,0,0)" stroke="none" d="M 470,97 C 466,83 461,72 454,59 454,59 454,59 453,59 443,40 429,27 411,16 392,5 373,0 352,0 330,0 311,5 293,16 278,24 267,34 257,47 L 244,64 C 244,65 243,66 242,66 240,67 239,68 238,68 236,68 235,67 233,66 232,66 231,65 231,64 L 218,47 C 208,34 197,24 182,16 164,5 145,0 123,0 L 120,0 C 99,0 80,5 61,16 44,26 32,38 21,55 20,57 19,58 18,60 6,81 0,102 0,126 L 0,151 C 0,151 0,151 0,151 0,188 8,219 27,250 42,277 60,297 86,315 L 94,302 C 78,289 65,277 52,261 L 44,252 C 44,250 43,249 43,248 43,246 44,245 44,243 45,242 46,241 48,240 49,239 50,239 52,239 54,239 55,239 56,240 57,240 57,241 58,241 L 65,251 C 77,265 88,276 104,288 L 127,252 127,226 C 128,215 130,206 136,197 138,193 140,190 142,187 L 155,173 C 155,172 156,172 157,171 158,170 159,170 161,170 163,170 164,170 165,171 167,172 168,173 168,174 169,175 169,176 169,176 L 176,204 183,204 212,175 212,155 C 212,155 212,155 212,155 212,137 216,122 225,107 229,100 234,94 240,88 242,85 245,83 248,82 254,78 260,77 267,77 267,77 267,77 267,77 L 285,77 C 285,77 285,77 285,77 292,77 298,78 304,82 307,83 309,85 311,88 L 326,102 348,102 C 349,102 351,102 352,103 353,104 354,105 355,106 356,108 356,109 356,111 L 356,132 C 356,137 355,142 352,146 350,151 346,155 342,157 337,160 332,161 327,161 327,161 327,161 327,161 L 314,161 314,203 320,251 C 321,257 322,262 322,269 322,271 322,273 321,275 321,287 318,298 312,308 310,312 308,314 306,317 L 306,369 386,316 C 413,298 432,278 448,250 467,218 475,187 475,150 475,150 475,150 475,150 L 475,139 C 475,139 475,139 475,139 475,124 473,112 470,97 L 470,97 Z M 37,220 C 36,220 35,221 34,221 32,221 31,220 30,219 28,219 27,218 26,216 26,216 26,215 26,215 L 24,211 C 19,195 17,181 17,164 17,164 17,164 17,164 L 17,161 C 17,161 17,160 17,160 17,158 17,157 18,155 19,154 20,153 21,152 22,152 24,151 25,151 27,151 28,152 30,152 31,153 32,154 33,155 34,157 34,158 34,160 34,160 34,161 34,161 L 34,164 C 34,164 34,164 34,164 34,179 36,192 41,206 L 42,210 C 42,210 42,211 42,212 42,214 42,215 41,216 40,218 39,219 38,220 38,220 37,220 37,220 L 37,220 Z M 431,251 L 423,261 C 404,284 385,301 359,316 359,316 358,317 358,317 L 335,330 C 334,330 333,330 332,330 330,330 329,330 328,329 326,328 325,327 325,326 324,325 323,323 323,322 323,320 324,319 325,317 325,316 326,316 327,315 L 350,302 C 350,302 350,302 351,301 375,288 393,272 410,250 L 418,241 C 418,241 418,241 418,241 418,239 419,239 421,238 422,237 423,237 425,237 427,237 428,237 429,238 431,239 432,239 432,241 433,242 434,244 434,245 434,247 433,248 432,249 432,250 432,251 431,251 L 431,251 Z M 458,164 C 458,164 458,164 458,164 458,181 456,195 451,211 L 449,215 C 449,215 449,215 449,215 448,217 447,218 446,218 444,219 443,220 442,220 440,220 439,219 437,218 436,218 435,217 434,215 433,214 433,212 433,211 433,210 433,210 433,210 L 433,210 434,206 C 439,192 441,179 441,164 441,164 441,164 441,164 L 441,161 C 441,161 441,160 441,160 441,158 441,157 442,156 443,154 444,153 445,152 447,152 448,151 450,151 451,151 453,152 454,152 455,153 456,154 457,156 458,157 458,158 458,160 458,160 458,161 458,161 L 458,164 458,164 Z M 458,127 C 458,128 458,128 458,129 458,130 458,132 457,133 456,134 455,135 454,136 453,137 451,137 450,137 448,137 447,137 445,136 444,135 443,134 442,133 441,132 441,130 441,129 441,128 441,128 441,127 L 441,119 C 441,118 442,117 442,116 443,114 444,113 445,113 447,112 448,112 450,112 451,112 453,112 454,113 455,113 456,114 457,116 458,117 458,118 458,119 L 458,127 Z"/>
         <path fill="rgb(0,0,0)" stroke="none" d="M 188,343 L 199,327 C 199,327 199,326 200,326 202,321 204,316 204,311 204,311 204,311 204,311 L 204,280 C 204,279 204,277 205,276 206,274 207,273 208,273 209,272 211,271 212,271 215,271 218,271 221,269 223,268 225,266 227,263 228,260 229,258 229,255 L 229,245 C 225,244 221,243 218,241 212,237 208,234 204,228 203,226 201,224 199,223 196,221 193,221 190,221 190,221 190,221 190,221 L 170,221 C 168,221 167,220 165,219 164,219 163,218 162,216 162,216 162,215 161,214 L 157,196 156,198 C 154,200 152,202 150,205 146,212 145,218 144,226 L 144,255 C 144,256 144,257 143,259 143,259 143,259 143,259 L 100,324 105,327 122,339 191,383 188,377 C 187,376 187,375 187,373 L 187,348 C 187,346 187,345 188,344 188,344 188,343 188,343 L 188,343 Z M 178,255 L 178,238 195,238 195,255 178,255 Z"/>
         <path fill="rgb(0,0,0)" stroke="none" d="M 211,387 L 211,387 C 212,388 212,389 212,390 L 212,397 221,403 221,377 211,386 211,387 Z"/>
        </g>
       </g>
      </g>
     </g>
    </g>
   </g>
  </g>
 </g>
</svg>